<svg width="144" height="144" viewBox="0 0 144 144" fill="none" xmlns="http://www.w3.org/2000/svg">
<path d="M121.709 103.5H23.291L72.5 7.93652L121.709 103.5Z" stroke="#BE0303" stroke-opacity="0.5" stroke-width="1.77273"/>
<path d="M10.4102 42.6426V40.2676C13.0078 40.3665 15.4941 40.416 17.8691 40.416C20.2689 40.416 22.5697 40.3665 24.7715 40.2676C26.9486 45.2155 28.9401 49.5573 30.7461 53.293L44.8105 82.2383L57.502 55.7051C60.9655 48.4811 63.2786 43.3353 64.4414 40.2676C67.0638 40.3665 69.278 40.416 71.084 40.416C72.7415 40.416 75.4258 40.3665 79.1367 40.2676V42.6426C76.1927 42.6921 74.3991 42.8281 73.7559 43.0508C73.1374 43.2487 72.7044 43.5332 72.457 43.9043C72.1354 44.3991 71.9499 45.599 71.9004 47.5039C71.8757 47.9987 71.8138 51.5117 71.7148 58.043V75.2246C71.7148 78.5892 71.7643 81.8672 71.8633 85.0586C71.9375 87.4089 72.1107 88.8066 72.3828 89.252C72.6797 89.6973 73.1374 90.0312 73.7559 90.2539C74.3991 90.4518 76.1927 90.5755 79.1367 90.625V93C74.1393 92.7773 70.6139 92.666 68.5605 92.666C66.903 92.666 63.2415 92.7773 57.5762 93V90.625C60.5202 90.5755 62.3138 90.4518 62.957 90.2539C63.6003 90.0312 64.0332 89.7344 64.2559 89.3633C64.5775 88.8685 64.763 87.6686 64.8125 85.7637C64.8372 85.2441 64.8991 81.7311 64.998 75.2246V47.9863L52.1953 74.7793C50.1914 78.9603 48.6204 82.3249 47.4824 84.873C46.666 86.7285 45.429 89.6725 43.7715 93.7051H42.3242C42.0026 92.765 41.7057 92.0104 41.4336 91.4414L38.9102 86.0605L21.1719 49.2109V75.2246C21.1719 78.5892 21.2214 81.8672 21.3203 85.0586C21.3945 87.4089 21.5677 88.8066 21.8398 89.252C22.1367 89.6973 22.5944 90.0312 23.2129 90.2539C23.8561 90.4518 25.6497 90.5755 28.5938 90.625V93L19.6504 92.7031L10.4102 93V90.625C13.3294 90.5755 15.1107 90.4518 15.7539 90.2539C16.3971 90.0312 16.8424 89.7344 17.0898 89.3633C17.3867 88.8685 17.5723 87.6686 17.6465 85.7637C17.6712 85.2441 17.7207 81.7311 17.7949 75.2246V58.043C17.7949 54.6784 17.7578 51.388 17.6836 48.1719C17.6094 45.8216 17.4238 44.4362 17.127 44.0156C16.8548 43.5703 16.3971 43.2487 15.7539 43.0508C15.1354 42.8281 13.3542 42.6921 10.4102 42.6426ZM106.449 93.3711C105.707 91.2188 104.161 87.0625 101.811 80.9023L89.1934 49.6934C87.8574 46.3783 87.0286 44.4609 86.707 43.9414C86.4844 43.6198 86.1751 43.3848 85.7793 43.2363C85.235 42.9889 83.8743 42.791 81.6973 42.6426V40.2676C86.1751 40.4655 89.4779 40.5645 91.6055 40.5645C93.6094 40.5645 97.0111 40.4655 101.811 40.2676V42.9023C98.7923 42.9518 97.0358 43.0137 96.541 43.0879C96.071 43.1621 95.737 43.3105 95.5391 43.5332C95.3659 43.7311 95.2793 43.9661 95.2793 44.2383C95.2793 44.5104 95.4525 45.1536 95.7988 46.168C96.8626 49.4583 97.7904 52.1055 98.582 54.1094L110.197 83.4258L119.883 59.1191C121.293 55.6309 122.641 51.8333 123.928 47.7266C124.472 45.9701 124.744 44.8815 124.744 44.4609C124.744 43.8672 124.423 43.4714 123.779 43.2734C123.285 43.1003 121.38 42.89 118.064 42.6426V40.2676C121.8 40.416 124.608 40.4902 126.488 40.4902C128.418 40.4902 131.077 40.416 134.467 40.2676V42.6426C132.587 42.7168 131.461 42.8405 131.09 43.0137C130.719 43.1868 130.372 43.5332 130.051 44.0527C129.828 44.4238 128.913 46.4277 127.305 50.0645L115.727 78.5645L112.869 85.875C112.275 87.3346 111.793 88.5964 111.422 89.6602C111.051 90.724 110.643 91.9609 110.197 93.3711H106.449Z" fill="white"/>
</svg>
