<svg width="96" height="96" viewBox="0 0 96 96" fill="none" xmlns="http://www.w3.org/2000/svg">
<path d="M75.7598 66H20.2402L48 12.0908L75.7598 66Z" stroke="#BE0303" stroke-opacity="0.5"/>
<path d="M9.92773 24.8701V23.3076C11.6367 23.3727 13.2725 23.4053 14.835 23.4053C16.4137 23.4053 17.9274 23.3727 19.376 23.3076C20.8083 26.5628 22.1185 29.4193 23.3066 31.877L32.5596 50.9199L40.9092 33.4639C43.1878 28.7113 44.7096 25.3258 45.4746 23.3076C47.1999 23.3727 48.6566 23.4053 49.8447 23.4053C50.9352 23.4053 52.7012 23.3727 55.1426 23.3076V24.8701C53.2057 24.9027 52.0257 24.9922 51.6025 25.1387C51.1956 25.2689 50.9108 25.4561 50.748 25.7002C50.5365 26.0257 50.4144 26.8151 50.3818 28.0684C50.3656 28.3939 50.3249 30.7051 50.2598 35.002V46.3057C50.2598 48.5192 50.2923 50.6758 50.3574 52.7754C50.4062 54.3216 50.5202 55.2412 50.6992 55.5342C50.8945 55.8271 51.1956 56.0469 51.6025 56.1934C52.0257 56.3236 53.2057 56.4049 55.1426 56.4375V58C51.8548 57.8535 49.5355 57.7803 48.1846 57.7803C47.0941 57.7803 44.6852 57.8535 40.958 58V56.4375C42.8949 56.4049 44.0749 56.3236 44.498 56.1934C44.9212 56.0469 45.2061 55.8516 45.3525 55.6074C45.5641 55.2819 45.6862 54.4925 45.7188 53.2393C45.735 52.8975 45.7757 50.5863 45.8408 46.3057V28.3857L37.418 46.0127C36.0996 48.7633 35.0661 50.9769 34.3174 52.6533C33.7803 53.874 32.9665 55.8109 31.876 58.4639H30.9238C30.7122 57.8454 30.5169 57.349 30.3379 56.9746L28.6777 53.4346L17.0078 29.1914V46.3057C17.0078 48.5192 17.0404 50.6758 17.1055 52.7754C17.1543 54.3216 17.2682 55.2412 17.4473 55.5342C17.6426 55.8271 17.9437 56.0469 18.3506 56.1934C18.7738 56.3236 19.9538 56.4049 21.8906 56.4375V58L16.0068 57.8047L9.92773 58V56.4375C11.8483 56.4049 13.0202 56.3236 13.4434 56.1934C13.8665 56.0469 14.1595 55.8516 14.3223 55.6074C14.5176 55.2819 14.6396 54.4925 14.6885 53.2393C14.7048 52.8975 14.7373 50.5863 14.7861 46.3057V35.002C14.7861 32.7884 14.7617 30.6237 14.7129 28.5078C14.6641 26.9616 14.542 26.0501 14.3467 25.7734C14.1676 25.4805 13.8665 25.2689 13.4434 25.1387C13.0365 24.9922 11.8646 24.9027 9.92773 24.8701ZM73.1113 58.2441C72.623 56.8281 71.6058 54.0938 70.0596 50.041L61.7588 29.5088C60.8799 27.3278 60.3346 26.0664 60.123 25.7246C59.9766 25.513 59.7731 25.3584 59.5127 25.2607C59.1546 25.098 58.2594 24.9678 56.8271 24.8701V23.3076C59.7731 23.4378 61.946 23.5029 63.3457 23.5029C64.6641 23.5029 66.902 23.4378 70.0596 23.3076V25.041C68.0739 25.0736 66.9183 25.1143 66.5928 25.1631C66.2835 25.2119 66.0638 25.3096 65.9336 25.4561C65.8197 25.5863 65.7627 25.7409 65.7627 25.9199C65.7627 26.099 65.8766 26.5221 66.1045 27.1895C66.8044 29.3542 67.4147 31.0957 67.9355 32.4141L75.5771 51.7012L81.9492 35.71C82.877 33.415 83.764 30.9167 84.6104 28.2148C84.9684 27.0592 85.1475 26.3431 85.1475 26.0664C85.1475 25.6758 84.9359 25.4154 84.5127 25.2852C84.1872 25.1712 82.9339 25.0329 80.7529 24.8701V23.3076C83.2106 23.4053 85.0579 23.4541 86.2949 23.4541C87.5645 23.4541 89.3141 23.4053 91.5439 23.3076V24.8701C90.307 24.9189 89.5664 25.0003 89.3223 25.1143C89.0781 25.2282 88.8503 25.4561 88.6387 25.7979C88.4922 26.042 87.89 27.3604 86.832 29.7529L79.2148 48.5029L77.335 53.3125C76.9443 54.2728 76.627 55.1029 76.3828 55.8027C76.1387 56.5026 75.8701 57.3164 75.5771 58.2441H73.1113Z" fill="#4D4949"/>
</svg>
